<?xml version="1.0" encoding="iso-8859-1"?>
<!-- Generator: Adobe Illustrator 19.0.0, SVG Export Plug-In . SVG Version: 6.00 Build 0)  -->
<svg version="1.1" id="Capa_1" xmlns="http://www.w3.org/2000/svg" xmlns:xlink="http://www.w3.org/1999/xlink" x="0px" y="0px"
	 viewBox="0 0 512 512" style="enable-background:new 0 0 512 512;" xml:space="preserve">
<g>
	<g>
		<circle cx="372.364" cy="174.545" r="23.273"/>
	</g>
</g>
<g>
	<g>
		<circle cx="139.636" cy="174.545" r="23.273"/>
	</g>
</g>
<g>
	<g>
		<path d="M256,104.727c-38.4,0-69.818,31.418-69.818,69.818c0,38.4,31.418,69.818,69.818,69.818
			c38.4,0,69.818-31.418,69.818-69.818C325.818,136.145,294.4,104.727,256,104.727z M256,221.091
			c-25.6,0-46.545-20.945-46.545-46.545C209.455,148.945,230.4,128,256,128c25.6,0,46.545,20.945,46.545,46.545
			C302.545,200.145,281.6,221.091,256,221.091z"/>
	</g>
</g>
<g>
	<g>
		<path d="M477.091,11.636H256H34.909C15.127,11.636,0,26.764,0,46.545v256c0,19.782,15.127,34.909,34.909,34.909h151.273
			c6.982,0,11.636-4.655,11.636-11.636s-4.655-11.636-11.636-11.636H34.909c-6.982,0-11.636-4.655-11.636-11.636v-256
			c0-6.982,4.655-11.636,11.636-11.636H256h221.091c6.982,0,11.636,4.655,11.636,11.636v186.182c0,6.982,4.655,11.636,11.636,11.636
			S512,239.709,512,232.727V46.545C512,26.764,496.873,11.636,477.091,11.636z"/>
	</g>
</g>
<g>
	<g>
		<path d="M452.655,81.455c-6.982,0-11.636-4.655-11.636-11.636s-4.655-11.636-11.636-11.636H81.455
			c-6.982,0-11.636,4.655-11.636,11.636s-4.655,11.636-11.636,11.636s-11.636,4.655-11.636,11.636V256
			c0,6.982,4.655,11.636,11.636,11.636s11.636,4.655,11.636,11.636c0,6.982,4.655,11.636,11.636,11.636h116.364
			c6.982,0,11.636-4.655,11.636-11.636c0-6.982-4.655-11.636-11.636-11.636H90.764c-3.491-10.473-11.636-17.455-20.945-20.945V102.4
			c10.473-3.491,17.455-11.636,20.945-20.945h329.309c3.491,10.473,11.636,17.455,20.945,20.945v95.418
			c0,6.982,4.655,11.636,11.636,11.636s11.636-4.655,11.636-11.636V93.091C464.291,86.109,459.636,81.455,452.655,81.455z"/>
	</g>
</g>
<g>
	<g>
		<path d="M407.273,221.091c-13.964,0-27.927,3.491-39.564,9.309c-5.818,2.327-8.145,9.309-5.818,15.127s9.309,8.145,15.127,5.818
			c9.309-4.655,19.782-6.982,30.255-6.982c38.4,0,69.818,31.418,69.818,69.818c0,13.964-4.655,27.927-12.8,39.564
			c-3.491,5.818-2.327,12.8,2.327,16.291c2.327,1.164,4.655,2.327,6.982,2.327c3.491,0,6.982-1.164,9.309-4.655
			c10.473-15.127,16.291-33.745,16.291-53.527C500.364,262.982,458.473,221.091,407.273,221.091z"/>
	</g>
</g>
<g>
	<g>
		<path d="M407.273,279.273c-6.982,0-11.636,4.655-11.636,11.636v11.636c0,6.982,4.655,11.636,11.636,11.636
			c6.982,0,11.636-4.655,11.636-11.636v-11.636C418.909,283.927,414.255,279.273,407.273,279.273z"/>
	</g>
</g>
<g>
	<g>
		<path d="M368.873,272.291c-17.455-17.455-40.727-27.927-66.327-27.927c-51.2,0-93.091,41.891-93.091,93.091
			c0,25.6,10.473,48.873,27.927,66.327c2.327,2.327,4.655,3.491,8.145,3.491s5.818-1.164,8.145-3.491
			c4.655-4.655,4.655-11.636,0-16.291c-13.964-13.964-20.945-31.418-20.945-50.036c0-38.4,31.418-69.818,69.818-69.818
			c18.618,0,37.236,6.982,50.036,20.945c4.655,4.655,11.636,4.655,16.291,0S373.527,276.945,368.873,272.291z"/>
	</g>
</g>
<g>
	<g>
		<path d="M360.727,314.182c-51.2,0-93.091,41.891-93.091,93.091s41.891,93.091,93.091,93.091s93.091-41.891,93.091-93.091
			C453.818,356.073,411.927,314.182,360.727,314.182z M360.727,477.091c-38.4,0-69.818-31.418-69.818-69.818
			c0-38.4,31.418-69.818,69.818-69.818c38.4,0,69.818,31.418,69.818,69.818C430.545,445.673,399.127,477.091,360.727,477.091z"/>
	</g>
</g>
<g>
	<g>
		<path d="M360.727,372.364c-6.982,0-11.636,4.655-11.636,11.636v46.545c0,6.982,4.655,11.636,11.636,11.636
			s11.636-4.655,11.636-11.636V384C372.364,377.018,367.709,372.364,360.727,372.364z"/>
	</g>
</g>
<g>
	<g>
		<circle cx="302.545" cy="314.182" r="11.636"/>
	</g>
</g>
</svg>
